<svg width="20" height="22" viewBox="0 0 20 22" fill="none" xmlns="http://www.w3.org/2000/svg">
<path d="M4.51603 13.3225L3.02603 19.7745C2.97989 19.9699 2.99374 20.1746 3.06577 20.362C3.1378 20.5494 3.26467 20.7107 3.4298 20.8248C3.59492 20.939 3.79064 21.0007 3.99138 21.0019C4.19212 21.0031 4.38855 20.9437 4.55503 20.8315L10 17.2015L15.445 20.8315C15.6154 20.9446 15.8162 21.0028 16.0207 20.9983C16.2251 20.9939 16.4232 20.9269 16.5884 20.8064C16.7536 20.686 16.878 20.5178 16.9448 20.3246C17.0116 20.1313 17.0176 19.9223 16.962 19.7255L15.133 13.3255L19.669 9.24352C19.8143 9.1127 19.9181 8.94218 19.9674 8.75303C20.0168 8.56387 20.0097 8.3644 19.9469 8.17926C19.8841 7.99412 19.7685 7.83144 19.6142 7.71134C19.46 7.59124 19.2739 7.51899 19.079 7.50351L13.378 7.04951L10.911 1.58851C10.8324 1.41267 10.7045 1.26335 10.5428 1.15857C10.3812 1.0538 10.1927 0.998047 10 0.998047C9.80739 0.998047 9.61887 1.0538 9.45722 1.15857C9.29556 1.26335 9.16769 1.41267 9.08903 1.58851L6.62203 7.04951L0.921026 7.50251C0.729482 7.51769 0.546364 7.58772 0.393581 7.70425C0.240798 7.82077 0.124819 7.97884 0.0595194 8.15954C-0.00578038 8.34025 -0.0176359 8.53595 0.0253712 8.72322C0.0683784 8.91049 0.164427 9.0814 0.302026 9.21551L4.51603 13.3225ZM7.36903 8.99651C7.54752 8.98245 7.71895 8.92063 7.86533 8.81753C8.01171 8.71443 8.12766 8.57384 8.20103 8.41051L10 4.42951L11.799 8.41051C11.8724 8.57384 11.9883 8.71443 12.1347 8.81753C12.2811 8.92063 12.4525 8.98245 12.631 8.99651L16.603 9.31151L13.332 12.2555C13.048 12.5115 12.935 12.9055 13.039 13.2735L14.292 17.6585L10.556 15.1675C10.392 15.0575 10.199 14.9987 10.0015 14.9987C9.80403 14.9987 9.61101 15.0575 9.44703 15.1675L5.54303 17.7705L6.59303 13.2245C6.63153 13.0573 6.62636 12.883 6.57802 12.7184C6.52969 12.5538 6.43981 12.4044 6.31703 12.2845L3.27903 9.32251L7.36903 8.99651Z" fill="#FFAA46"/>
</svg>
